<svg width="141" height="33" viewBox="0 0 141 33" fill="none" xmlns="http://www.w3.org/2000/svg">
<path d="M15.74 22.98H6.72L4.52 30.46L7.38 31.56V32H0.78V31.56L3.64 30.46L12.22 0.539999H12.88L22.12 30.9L24.76 31.56V32H15.52V31.56L18.16 30.9L15.74 22.98ZM6.94 22.144H15.476L11.076 7.58L6.94 22.144ZM25.8394 32V31.56L28.4794 30.9V2.3L25.8394 1.64V1.2H33.7594C35.138 1.2 36.326 1.36133 37.3234 1.684C38.35 1.97733 39.2007 2.40267 39.8754 2.96C40.55 3.488 41.0487 4.11867 41.3714 4.852C41.7234 5.556 41.8994 6.31867 41.8994 7.14C41.8994 7.78533 41.7967 8.35733 41.5914 8.856C41.4154 9.35467 41.166 9.79467 40.8434 10.176C40.55 10.528 40.198 10.8507 39.7874 11.144C39.406 11.408 39.01 11.628 38.5994 11.804C37.6314 12.244 36.5314 12.5227 35.2994 12.64C37.118 12.816 38.7314 13.2707 40.1394 14.004C40.7554 14.3267 41.342 14.7227 41.8994 15.192C42.486 15.632 42.9994 16.1893 43.4394 16.864C43.9087 17.5093 44.2754 18.272 44.5394 19.152C44.8327 20.0027 44.9794 20.9853 44.9794 22.1C44.9794 23.4787 44.7154 24.7693 44.1874 25.972C43.6594 27.1747 42.8967 28.2307 41.8994 29.14C40.9314 30.02 39.758 30.724 38.3794 31.252C37.0007 31.7507 35.4607 32 33.7594 32H25.8394ZM32.2194 13.08V31.12H33.7594C34.7567 31.12 35.6807 30.9293 36.5314 30.548C37.382 30.1667 38.1154 29.5947 38.7314 28.832C39.3767 28.0693 39.8754 27.1307 40.2274 26.016C40.6087 24.9013 40.7994 23.596 40.7994 22.1C40.7994 20.604 40.6087 19.2987 40.2274 18.184C39.8754 17.0693 39.3767 16.1307 38.7314 15.368C38.1154 14.6053 37.382 14.0333 36.5314 13.652C35.6807 13.2707 34.7567 13.08 33.7594 13.08H32.2194ZM32.2194 12.2H33.7594C35.0794 12.1707 36.1354 11.7453 36.9274 10.924C37.7487 10.0733 38.1594 8.812 38.1594 7.14C38.1594 5.468 37.7487 4.20667 36.9274 3.356C36.1354 2.50533 35.0794 2.08 33.7594 2.08H32.2194V12.2ZM68.5142 16.6C68.5142 19.2987 68.2062 21.66 67.5902 23.684C67.0036 25.6787 66.2116 27.3507 65.2142 28.7C64.2462 30.02 63.1462 31.0173 61.9142 31.692C60.6822 32.3373 59.4356 32.66 58.1742 32.66C56.9129 32.66 55.6662 32.3373 54.4342 31.692C53.2022 31.0173 52.0876 30.02 51.0902 28.7C50.1222 27.3507 49.3302 25.6787 48.7142 23.684C48.1276 21.66 47.8342 19.2987 47.8342 16.6C47.8342 13.9013 48.1276 11.5547 48.7142 9.56C49.3302 7.536 50.1222 5.864 51.0902 4.544C52.0876 3.19467 53.2022 2.19733 54.4342 1.552C55.6662 0.877332 56.9129 0.539999 58.1742 0.539999C59.4356 0.539999 60.6822 0.877332 61.9142 1.552C63.1462 2.19733 64.2462 3.19467 65.2142 4.544C66.2116 5.864 67.0036 7.536 67.5902 9.56C68.2062 11.5547 68.5142 13.9013 68.5142 16.6ZM64.3342 16.6C64.3342 13.5787 64.1436 11.0853 63.7622 9.12C63.4102 7.12533 62.9262 5.54133 62.3102 4.368C61.7236 3.19467 61.0636 2.37333 60.3302 1.904C59.5969 1.43467 58.8782 1.2 58.1742 1.2C57.4702 1.2 56.7516 1.43467 56.0182 1.904C55.2849 2.37333 54.6102 3.19467 53.9942 4.368C53.4076 5.54133 52.9236 7.12533 52.5422 9.12C52.1902 11.0853 52.0142 13.5787 52.0142 16.6C52.0142 19.6213 52.1902 22.1293 52.5422 24.124C52.9236 26.0893 53.4076 27.6587 53.9942 28.832C54.6102 30.0053 55.2849 30.8267 56.0182 31.296C56.7516 31.7653 57.4702 32 58.1742 32C58.8782 32 59.5969 31.7653 60.3302 31.296C61.0636 30.8267 61.7236 30.0053 62.3102 28.832C62.9262 27.6587 63.4102 26.0893 63.7622 24.124C64.1436 22.1293 64.3342 19.6213 64.3342 16.6ZM87.8656 23.64C87.8656 25.0187 87.6456 26.2653 87.2056 27.38C86.795 28.4947 86.1936 29.448 85.4016 30.24C84.639 31.0027 83.7003 31.5893 82.5856 32C81.471 32.44 80.2243 32.66 78.8456 32.66C77.731 32.66 76.6896 32.4547 75.7216 32.044C74.783 31.6333 73.947 31.0907 73.2136 30.416C72.5096 29.7413 71.9523 28.9787 71.5416 28.128C71.131 27.248 70.9256 26.3387 70.9256 25.4C70.9256 23.728 71.263 22.4813 71.9376 21.66C72.6416 20.8387 73.4776 20.3253 74.4456 20.12L77.5256 22.76C74.5923 23.2 73.1256 24.74 73.1256 27.38C73.1256 27.9373 73.2576 28.48 73.5216 29.008C73.7856 29.536 74.167 30.0053 74.6656 30.416C75.1643 30.8267 75.7656 31.164 76.4696 31.428C77.1736 31.6627 77.9656 31.78 78.8456 31.78C79.5496 31.78 80.2243 31.6333 80.8696 31.34C81.515 31.0173 82.0723 30.5333 82.5416 29.888C83.0403 29.2133 83.4216 28.3627 83.6856 27.336C83.979 26.3093 84.1256 25.0773 84.1256 23.64V2.3L81.4856 1.64V1.2H90.5056V1.64L87.8656 2.3V23.64ZM113.176 23.2C113.176 26.5147 112.487 28.92 111.108 30.416C109.759 31.912 107.808 32.66 105.256 32.66C102.264 32.66 99.9319 31.8387 98.2599 30.196C96.6173 28.524 95.7959 26.192 95.7959 23.2V2.3L93.1559 1.64V1.2H102.176V1.64L99.5359 2.3V23.2C99.5359 26.1627 100.123 28.3333 101.296 29.712C102.469 31.0907 103.936 31.78 105.696 31.78C106.693 31.78 107.588 31.6187 108.38 31.296C109.201 30.944 109.891 30.416 110.448 29.712C111.035 29.008 111.489 28.128 111.812 27.072C112.135 25.9867 112.296 24.696 112.296 23.2V2.74L109.436 1.64V1.2H116.036V1.64L113.176 2.74V23.2ZM127.05 1.2C128.927 1.2 130.555 1.40533 131.934 1.816C133.312 2.22666 134.456 2.784 135.366 3.488C136.275 4.192 136.95 5.01333 137.39 5.952C137.83 6.86133 138.05 7.844 138.05 8.9C138.05 9.75067 137.918 10.5133 137.654 11.188C137.419 11.8333 137.096 12.42 136.686 12.948C136.304 13.4467 135.85 13.872 135.322 14.224C134.794 14.576 134.266 14.8693 133.738 15.104C132.476 15.6613 131.054 16.0133 129.47 16.16C130.76 16.3067 131.934 16.6147 132.99 17.084C133.899 17.4947 134.75 18.096 135.542 18.888C136.334 19.68 136.803 20.7507 136.95 22.1L137.83 29.8C137.888 30.3573 138.02 30.7533 138.226 30.988C138.431 31.2227 138.666 31.34 138.93 31.34C139.076 31.34 139.223 31.296 139.37 31.208C139.546 31.0907 139.707 30.9587 139.854 30.812C140 30.6653 140.132 30.4747 140.25 30.24L140.69 30.68C140.514 31.0613 140.264 31.3987 139.942 31.692C139.678 31.9267 139.326 32.1467 138.886 32.352C138.475 32.5573 137.976 32.66 137.39 32.66C136.392 32.66 135.571 32.3813 134.926 31.824C134.31 31.2373 133.958 30.5627 133.87 29.8L132.99 22.1C132.872 21.1027 132.682 20.2667 132.418 19.592C132.154 18.888 131.787 18.316 131.318 17.876C130.878 17.436 130.306 17.1133 129.602 16.908C128.898 16.7027 128.047 16.6 127.05 16.6H125.29V30.9L127.93 31.56V32H118.91V31.56L121.55 30.9V2.3L118.91 1.64V1.2H127.05ZM133.87 8.9C133.87 6.7 133.283 5.01333 132.11 3.84C130.936 2.66667 129.25 2.08 127.05 2.08H125.29V15.72H127.05C129.25 15.72 130.936 15.1333 132.11 13.96C133.283 12.7867 133.87 11.1 133.87 8.9Z" fill="#695A59"/>
</svg>
